<?xml version="1.0" encoding="utf-8"?>
<!-- Generator: Adobe Illustrator 25.2.3, SVG Export Plug-In . SVG Version: 6.00 Build 0)  -->
<svg version="1.1" xmlns="http://www.w3.org/2000/svg" xmlns:xlink="http://www.w3.org/1999/xlink" x="0px" y="0px"
	 viewBox="0 0 288 288" style="enable-background:new 0 0 288 288;" xml:space="preserve">
<style type="text/css">
	.st0{fill:#FFFFFF;}
	.st1{fill:#0E0E0C;}
</style>
<g id="Layer_2">
</g>
<g id="Layer_1">
	<g>
		<g>
			<path class="st0" d="M48.6,215.3c0.7-0.3,1.2-1.2,2.2-0.9c0.4-0.8-0.3-1.3-0.3-2c0.3-0.5,0.6,0.1,1.1,0c-0.3-0.6,0-1.2,0.1-1.8
				c0.1-0.9,0.4-1.1,1.2-0.9c-0.1-0.6,0.3-1.2,0.1-1.9c0.5,0.2,0.2,0.7,0.6,0.8c0.6-0.4,0.5-1.1,0.6-1.8c1,0,1.1-0.8,1.1-1.5
				c0-0.6-0.6-0.4-1.2-0.4c0.7-0.6,1.5,0.2,2-0.3c0.2-0.3-0.1-0.3-0.3-0.5c1.3-0.6-0.2-1.5,0.4-2.3c0.4-0.2,0.9-0.5,1-1.1
				c0.1-0.4,0.1-1,0.7-0.8c0.7,0.1,0.1,0.7,0.3,1.1c1.3-0.6,1.3-0.6,1.1-1.5c-0.4-0.3-0.8,0.4-1.4,0c0-0.3,0-0.9-0.5-1
				c0.4-1.2,0.7-2.5,1.7-3.3c-0.5-0.4-1.1-0.6-1.5-1c0-0.6,0.6-0.5,0.9-0.9c-0.7-0.9-1.3-1.9-0.9-3.2c0.1-0.5-0.2-1-1-1.1
				c0.5-0.3,0.9-0.3,1-0.7c-0.2-0.5-0.7-0.1-0.9-0.4c-0.1-0.5,0.2-0.5,0.5-0.5c-0.2-0.9-0.2-0.9,0.3-1.5c-0.1-0.1-0.3-0.2-0.4-0.2
				c-0.1-0.1-0.2-0.2-0.5-0.3c0.3-0.2,0.7,0.2,0.9-0.3c-0.6-0.9,0.8-1.6,0.4-2.5c-0.6-0.4-1.6,0.3-1.8-0.7c0.2-0.6,0.9-0.1,1.1-0.7
				c-0.3-0.2-0.6-0.1-1,0c-0.6-1.2,1-0.8,1.1-1.6c0.1-0.3-0.6-0.5-0.3-0.8c0.3-0.4,0.4-0.6,0-0.9c-0.5-0.3-0.2-0.6,0.1-0.9
				c-0.9,0.1-0.9-0.6-1.2-1c0.1-0.1,0.3-0.2,0.6-0.4c-0.7-0.1-0.8-0.4-0.7-1c0.2-0.5,0.1-1.1,0-1.7l0,0c0.2,0.1,0.5,0,0.8-0.1
				c-0.4-0.5-1-0.8-0.8-1.5c0.1-0.3,0.4-0.2,0.7-0.3c-0.1-0.4-0.9-0.4-0.5-1c0.2-0.3-0.2-0.9,0.7-0.7c-0.3-0.4-0.4-0.6-0.6-0.8
				c0.3-0.1,0.8-0.2,0.6-0.5c-0.5-0.6-0.1-1.3-0.4-2c-0.2-0.6-0.5-0.9-1.1-0.9c0.7-0.1,1.2-0.9,2.1-0.5c0.1-0.7-0.4-0.5-0.7-0.7
				c-0.4-0.2-0.3-0.6-0.5-0.9c0.9-0.4,1.1-0.8,0.5-1.3c-0.5-0.4-0.3-0.6-0.2-0.9c0.5-1.1,0-1.9-1.2-2.1c-0.3-0.1-0.7-0.2-1.2-0.3
				c0.9,0.1,1.1-0.4,1.3-0.9c0.2-0.6-0.1-1.4,0.5-1.9c-0.3-1.1,0.1-2.2,0.3-3.5c0.1-0.1,0.4-0.2,0.6-0.4c-0.3-0.3-0.7,0-1.1-0.2
				c0.2-0.8-0.9-0.8-1-1.5c0.1,0.1,0.2,0.2,0.3,0.1c0.1-0.1,0-0.2-0.1-0.3c0-0.3,0-0.6-0.1-0.9c-0.3-0.2-0.4,0.2-0.8,0.1
				c1.5-1.2,1.4-2.8,1.8-4.4c-0.6-0.2-1.1-0.4-1.7-0.6c0.4-0.5,0.1-0.9-0.2-1.3c0.5-0.4,1.1-0.3,1.4-0.9c0-0.5-0.6-0.2-0.7-0.5
				c-0.3-0.8,0.9-1.6-0.1-2.4c1.1,0.2,1.3-1.2,2.3-1.2c-0.1-0.5-0.6-0.7-0.6-1.3c0.2-0.3,0.7,0,0.8-0.4c0.1-0.4-0.3-0.5-0.6-0.6
				c0-0.4,0.6-0.6,0.3-1.2c-0.6,0.2-1.1,0.3-1-0.7c0-0.8-0.9-0.8-1.4-1c-0.1-0.4,0.3-0.5,0.3-0.7c-0.2-0.4-0.9,0.4-0.9-0.5
				c0.5-0.1,0.9-0.1,1.4-0.4c0.2-1.1-0.2-1.9-1.1-2.6c0.6-0.4,1.1-0.2,1.7,0c-0.2-0.4,0.4-0.7-0.1-1c-0.3-0.2-0.1-0.3,0-0.5
				c0.2-0.4,0.5-0.8,0-1.3c-0.2,0.1-0.2,0.4-0.5,0.3c-0.2-1.1,1.1-1.3,1.2-2.3c-0.1-0.3-0.5,0-0.7-0.2c-0.1-0.3,0.5-0.7-0.2-0.9
				c0.1-0.4,0.7-0.3,0.7-0.7c-1.4-0.6-1.5-0.7-1.1-1.6c0-0.4-0.7-0.1-0.6-0.7c0.7-0.2,0.9-1.2,1.8-1.4c0-0.4-0.1-0.7-0.4-0.8l0,0
				c0.2-0.7-0.6-1-0.8-1.6c-0.1-0.3-0.5,0.2-0.9,0c0.5-0.6,0.6-1.3,0.3-1.9c0.1,0,0.2-0.1,0.1-0.2c-0.1-0.1-0.2,0-0.2,0.1
				c-0.4-0.2-0.5-0.5-0.4-0.9c0.5-0.1,1.3-0.1,0.7-1c-0.2-0.3,0.1-0.4,0.2-0.6c0.3-0.5,0.2-0.8-0.6-0.9c0.6-0.3,1-0.7,0.9-1.3
				c0.1,0,0.2-0.1,0.1-0.2c0,0.1-0.1,0.1-0.1,0.2c-0.3-0.1-0.5,0.2-0.8,0.4c-0.2-0.4-0.4-0.8,0-1c0.3-0.2,0.8-0.2,0.8-0.7
				c0.3,0.1,0.1,0.5,0.5,0.6c0.7-0.1,0.6-0.8,1.1-1.2c-0.5-0.2-0.8-0.4-1-0.9c-0.1-0.2-0.3-0.5-0.6-0.3c-0.6,0.3-0.7-0.2-1.1-0.5
				c0.8-0.4,0.8-1.2,1-1.8c-0.1-0.4-0.5,0-0.8-0.1c-0.1-0.4,0.3-0.5,0.3-0.8c-0.1-0.3-0.5-0.1-0.6-0.5c0.6,0.1,1-0.1,1.3-0.7
				c-0.3-0.3-0.3-0.9-0.9-0.8c0.3-0.4,0.9-0.3,1-0.8c-0.1-0.4-0.5-0.2-0.8-0.3c0.3-0.5,0.7-0.8,1.2-1c0.2,0.2-0.1,0.8,0.5,0.7
				c0.5-0.1,0.3-0.5,0.3-0.8c0-1-0.3-1.3-1.2-1c-0.3,0.1-0.5,0-0.8-0.2c0.8-0.1,0.8-0.8,1.3-1.2c0.2-0.2,0.1-0.6-0.4-0.6
				c-0.4,0-0.7-0.2-1.1,0c0.4-0.3,0.8-0.6,1.4-0.4c-0.7-1.3,0.3-1.8,1.1-2.4c-0.3-0.4-0.5-0.5-0.8-0.2c-0.6-0.9,0-2.1-0.8-2.9
				c0.4-0.3,1,0.5,1.3-0.3c-0.9-0.5-0.4-1.7-1.1-2.5c0.5-0.5,1.6-0.6,1.3-1.8c-0.3-0.2-0.7,0-1-0.2c-0.2-0.4,0.4-0.5,0.4-0.9
				c-0.2-0.3-0.6-0.3-0.8-0.8c0.3-0.2,0.6-0.4,1-0.6c0-0.5-0.6-0.4-0.9-0.8c0.4-0.3,0.8,0.3,1.2-0.2c0.2-0.3-0.3-0.7-0.2-1.1
				c0.2-0.2,0.5,0,0.6-0.4c-0.6-0.2-1.1-0.6-1.3-1.2c0.3-0.4,0.8,0.1,1-0.3c0-0.6-0.6-0.2-0.8-0.6c0.5-0.4,1.5-0.6,0.8-1.7
				c0.8-0.1,1.2-0.5,1-1.3c0-0.2-0.2-0.6,0.4-0.5c0.1,0,0.3-0.8,0-1.1c-0.4-0.5-0.7-0.9,0.1-1.4c0.6-0.3,0-0.7-0.4-1
				c0.2-0.1,0.3-0.2,0.5-0.3c-0.9-1.1-0.9-1.9,0.5-2.6c0.6-0.3,0.6-0.7,0.8-1.1c-0.2-0.5-1.2,0.4-0.8-0.7c0.7,0.2,0.8-0.7,1.4-0.9
				c0.7-0.2,0.3-1.1,0.9-1.4c0.7-0.3,0.8-0.9,0.8-1.4c-0.4-0.5-0.5,0.4-0.8,0.1c0.7-1.9,0.9-2.1,0.2-2.9c0.3-0.3,0.3,0.1,0.5,0.1
				c0.4-0.1,0.3-0.6,0.5-0.8c0.1,0.2-0.1,0.5,0.3,0.6c0.1-0.3,0.2-0.5-0.2-0.7c0-0.5,0.4-1-0.5-1.3c1.6-0.6,1.4-2.8,3.3-2.8
				c0,0.1,0.1,0.3,0.1,0.6c1-0.3,0.6-1.2,1-1.8c-0.5-0.1-1.1,0.3-1.4-0.5c0.2-0.3,0.5,0.4,0.7,0c0.1-0.5,0.1-1.1,0.7-1.4
				c0-0.3-0.4-0.4-0.5-0.8c0.7-0.1,0.8-0.8,1.1-1.3c-0.1,0.4,0,0.8,0.2,1.1c1-0.2,1-0.2,1.2-2c1-0.5,1-0.5,1.4-0.2
				c0.1-0.5,0.8-0.7,0.4-1.4c0.5-0.2,1.1,0.9,1.4-0.2c0.1-0.4-1-0.4-0.3-1c0.1,0.1,0.3,0.1,0.5,0.2c0.3-0.4,0.4-0.8,0.8-1.2
				c0.3-0.2,0.6-0.3,0.7-0.1c0.4,0.5,0.7,0.4,1.1,0.1c0.5-0.4,0.2-0.8-0.1-1.2c0.7,0,0.7,0,1.3,0.8c0.4,0,0.5-0.6,1.1-0.3
				c0.9,0.4,1.1,0.1,0.8-1c1.6-0.2,2.4-0.9,2.9-2.7c0.3,0.3,0.2,0.8,0.5,1.2c0.4,0,1.1-0.8,1.1,0.4c0.3-0.1,0.2-0.3,0.3-0.4
				c0.7,0.4,0.7,0.4,2.2,0.2c0-0.5-0.5-0.4-0.8-0.5c0.9-0.5-0.1-1.3,0.2-1.9c0.3,0.4,0.6,0.7,1,1.1c0.4-0.5,1-0.4,1.3-0.7
				c0.2-0.3,0.3-0.7,0.3-1.2c0.4,0,0.7,0.6,1.2,0c0.3-0.4,0.6,0.5,1.2,0.3c0.1-0.5,0.7-1.1,0-1.8c0.5-0.1,0.9,0.3,1.4,0.4
				c0.5-0.3-0.4-0.4-0.1-0.8c0.6,0.5,1.3,0.5,1.7-0.3c0.4,0.3,0,0.7,0.4,0.9c0.5,0,0.5-0.6,0.9-0.8c1.1,0.7,1.9,0,2.7-0.5
				c0.3,0.1,0.2,0.5,0.5,0.6c0.5-0.3,1.2-0.3,1.3-1.1c0.1-0.4,0.8-0.1,0.9-0.6c0.4,0.3,0.4,0.9,1,1.1c0.2-1.5,1.5-0.9,2.3-1.1
				c0.9-0.1,2-0.5,2.8,0.3c0.5-0.3,1-0.6,1.5-0.9c0.3,0.3-0.1,0.4-0.1,0.7c0.8,0.1,1.5,0,2.2-0.2c0-0.5-0.5-0.8-0.3-1.4
				c0.5,0,0.9,0.3,0.9,0.9c2.8-1.3,2.8-1.3,3.4-0.5c0.3,0,0.3-0.2,0.4-0.3c0.1-0.1,0.2-0.3,0.2-0.4c0.9-0.1,0.6,1,1.4,1.2
				c0.4-0.5,1-0.9,1.8-0.8c0.5-1.1,1.6-0.5,2.6-0.3c-0.2-0.5-0.2-0.9,0.2-1.3c0.5,0.7,0.7-0.3,1.2-0.2c0.3,0.3,0.2,0.7,0,1
				c-0.2,0.3,0.1,0.5,0.3,0.7c0.2,0.1,0.5,0.1,0.6-0.1c0.6-0.6,1.1-1.2,0.8-2.1c0.6,0.5,0.6,1.2,0.5,1.9c0.8-0.2,1.7,0.1,2.2-0.7
				c0.2-0.2,0.5-0.2,0.7,0.1c0.3,0.3,0.6,0.3,1,0.3c0.1,0.3-0.3,0.3-0.2,0.7c0.6-0.1,0.8-0.2,0.4-0.8c0-0.1-0.1-0.2-0.1-0.3
				c1.2-0.2,2.2-1,3.4-0.8c0.2-0.3-0.2-0.6,0.1-0.9c0.8,0.2,1.6,0.6,2.5,0c0.1-0.1,0.5,0.1,0.8,0.3c0.3,0.2,0.6,0.2,0.8-0.2
				c0.7,1.1,0.7,1.1,1.5,0.1c0.6,0.3,0.4,1,0.6,1.7c0.4-1,1.3-0.6,1.9-0.9c0.8-0.5,1.4-0.1,2.1,0c0.6-0.2,0-0.7,0.3-1
				c0.6-0.1,0.8,0.5,1.4,0.5c0.4,0,0.9,0.2,1.4,0.2c0.2-0.2,0.2-0.6,0.7-0.6c0.2,0.6,0.6,0.5,1.1,0.3c0.4-0.2,0.9-0.4,1.4-0.3l0,0
				c0,0.2,0.2,0.4,0.4,0.4c0.2,0,0.1-0.2,0.1-0.4l0,0c0.9,0.2,1.6-0.4,2.3-0.7c0-0.5-0.2-0.9,0.1-1.5c0.7,1.4,2,1.5,3.2,1.7
				c0.1-0.3-0.3-0.3-0.2-0.6c0.5-0.3,0.7,0.8,1.2,0.2c0.2-0.2-0.2-0.4-0.1-0.6c1.4,0,2.6,0.5,3.9,0.9c0.3,0.1,0.6,0.1,0.9,0.1
				c0,0.1,0.1,0.2,0.2,0.1c-0.1,0-0.1-0.1-0.2-0.1c-0.2-1,0.7-1.2,1.2-1.7c0.4,0.4,1.8,0.7,2.2,0.4c0.8-0.5,1.5-0.2,1.7,0.7
				c0.9-0.6,0.9-0.7,0.3-1.9c0.4-0.2,0.8,0.4,1.1-0.1c0.2-0.2,0.6,0,0.9,0.4c0.3,0.4,0.6,0.7,1.1,0.6c0,0.1,0.1,0.2,0.2,0.1
				c-0.1,0-0.1-0.1-0.2-0.1c0.7-0.3,1.5-0.3,1.9-1.1c0.2-0.4,1.5,0.1,1.6,0.6c0.1,0.3,0.1,0.3,1.3,0.5c-0.5-0.5-0.2-1-0.2-1.6
				c0.4-0.1,0.9-0.2,1.2,0.2c0.4,0.5,1,0.6,1.6,1c0.6,0.3,1.4,0.4,1.4,1.4c0,0.5,0.6,0.3,0.8,0.5c0.5-0.4,0-0.7,0-1.1
				c0.5,0,0.9-0.8,1.5-0.5c0.3,0.6-0.2,1.3,0.2,2c0.5-0.1,0.2-1,0.9-0.9c0.5,0.1,0.3,0.6,0.5,0.9c1.5,0,1.7-0.2,1.7-1.2
				c0.5-0.1,1,0,1.3,0.4c0.6,0.8,1.4,1.1,2.3,1.3c0.3-0.3,0.3-0.6,0.1-0.9c-0.5-0.5,0.5-0.4,0.3-0.8c0.2,0.3,0.4,0.6,0.4,0.9
				c1.1,0.3,2.1,0.2,3.1,0.6c0.5-0.6,0.5-0.6,1.4-0.7c0.2,0.4-0.3,0.7-0.2,1.1c-0.4,0.2-1-0.3-1.4,0.2c0.7,0.7,1.1,0.6,1.4-0.2
				c0.5,0,0.7-0.5,1.2-0.7c0.6,0.7,1.3-0.1,2.1,0c0.1,0.8,0.5,1.2,1.4,0.9c0.2,0.2,0.1,0.7,0.6,0.7c0.7-0.2,0.1-1.1,0.6-1.5
				c0.2,0.4,0.4,0.7,0.8,1c0.3-0.7,1.3,0.3,1.7-0.7c0.2-0.5,1.3-0.2,1.9-0.6c0.4,0.8-1,0.5-0.7,1.4c0.8,0,1.6,0,2.5,0.3
				c0,0.2,0,0.4,0.2,0.4c0.1,0,0.2-0.1,0.2-0.2c0-0.3-0.2-0.2-0.4-0.2c-0.1-0.6,0.3-1,0.6-1.5c0.9,0.1,0.4,1.1,1.1,1.5
				c0.8-0.4,1.3-0.2,1.9,0.6c0.5,0.8,1.4,1.3,2.3,1.8c0.5-0.2-0.1-0.5,0.1-0.9c0.7-0.2,0.7,1.4,1.5,0.7c0.3,0.3,0.1,0.7,0.4,0.9
				c0.3-0.5-0.3-1.7,1-1.6l0,0c0.2,0.8,1.1,0.7,1.4,1.3c0.1,0.1,0.4,0.2,0.5-0.1c0.4-0.8,1-0.3,1.4-0.2c0.4-0.1,0.1-0.6,0.4-0.7
				c0.4,0.1,0.1,0.4,0.1,0.5c0.5,0.3,0.5-0.5,0.7-0.3c0.4,0.1,0.5,0.4,0.7,0.6c0.1,0.2,0.3,0.2,0.5,0.1c0.9-0.5,1-0.5,1,0.5
				c0,0.1,0,0.2,0.1,0.3c0.7,0.3,1-1.1,1.8-0.3c-0.7,0.5-0.7,1-0.3,1.7c0.3,0.1,0.4-0.4,0.7-0.3c0.3,0.3,0.4,0.7,0.4,1.1
				c-0.2,0.1-0.3,0.2-0.1,0.4c0.2-0.1,0.1-0.3,0.1-0.4c0.1,0.1,0.3,0.4,0.4,0.4c0.7-0.3,1.1,0,1.6,0.5c0.5,0.4,1.4,0.3,2.1,0.5
				c0,0,0.1,0,0.1,0.1c0.3,0.3-0.5,0.7-0.1,1c0.4,0.1,0.3-0.5,0.7-0.5c0.4,0.6,1,1,1.5,1.5c0-0.2,0.1-0.4,0.2-0.8
				c0.5,0.7,1,0.2,1.4-0.1c0.4,1-0.8,0.5-0.7,1.1c1,0.8,1.3,0.7,2-0.5c0.4,0,0.2,0.4,0.3,0.6c0.1,0.3-0.2,0.2-0.3,0.3
				c-0.3,0.4-0.1,0.9,0.1,1.2c0.2,0.5,0.8,0.5,1.3,0.2c-0.3,1.7,0.4,2.3,2.4,2.3c-0.2,0.2-0.5,0.4-0.8,0.4c-0.2,0.4,0.2,0.9,0.6,0.8
				c0.4-0.1,0.6,0,0.7,0.3c0.2,0.9,0.6,0.9,1.2,0.2c0.4,1.4-0.7,1.7-1.3,2.4c0.3,0.3,0.4,0.6,0.5,1c0.2-0.2,0-0.6,0.4-0.6
				c0.2,0,0.3,0.2,0.4,0.4c0.3,0.5-0.2,0.7-0.4,1c0.8-0.2,1,0.9,1.8,0.8c0.6,1.3,1.6,0.5,2.3,0.3c0.6-0.2,0.9-0.2,1.2,0.4
				c0.4,0.8,1.2,1.4,0.5,2.4c-1.2-0.4-0.3-1.6-0.9-2.2c-2.1,0.4-2.7,1.1-1.9,2.7c0.5,0,0.1-0.7,0.5-0.8c0.3-0.1,0.6-0.1,0.9,0
				c0.1,0.6-0.5,0.4-0.8,0.8c0.2,0.3,0.3,0.7,0.4,1.1c-0.1,0-0.2,0-0.1,0.2c0-0.1,0.1-0.1,0.1-0.2c0.5,0,0.9-0.1,1-0.7
				c0.1-0.4,0.4-0.5,0.7-0.5c0.4,0.9,0.2,1.1-1.2,1.5c-0.1,0.9,0.5,0.5,1,0.5c0.4,0.9,0.3,1.8-0.4,2.6c0.1,0.2,0.3,0.2,0.5,0.3
				c0.5-0.4,0.4-1.3,1.1-1.5c-0.8,0.7,0.3,2.1-0.9,2.7c0,0.4,0.8,0.7,0.3,1.3c-0.1,0.1-0.1,0.2,0.1,0.3c1.1,0.3,0.6,1.1,0.6,1.8
				c0.4,0.3,0.3-0.4,0.7-0.2c0.2,0.5,0,1.1,0,1.8c0.7-0.3,0.5-0.8,0.5-1.2c0.2,0.3,0.8,0.4,0.4,1c-0.7,1.2-0.3,2.1,0.7,3
				c0.5-0.4-0.1-1.4,0.9-1.5c0,0.6,0.6,1.3-0.3,1.8c0,0.4,0.8,0.1,0.6,0.7c-0.1,0.3-0.3,0.5-0.6,0.5c-0.3,0-0.4,0.2-0.4,0.5
				c-0.2,0-0.3,0-0.4,0.2c0,0.1,0.1,0.2,0.2,0.2c0.2,0,0.2-0.2,0.2-0.4c0.3,0,0.6,0.2,0.9,0.4c-0.1,0.4-0.3,0.8-0.1,1.4
				c0.4-0.1,0.6,0.5,1.1,0.4l0,0c0.1,0.4-0.4,0.9,0.4,1.1c0.3,0.1,0,0.6,0.3,0.9c-0.6,0-1,0.4-1.6,0.3c-0.1-0.6,0-1.1,0.5-1.6
				c-1.4-0.5-1.4,0.7-1.9,1.3c0.6,0,0.9,0.4,1.3,0.8c0.3,0.3,0.9,0.6,1.4,0c0.2,0.2,0.4,0.3,0.6,0.6c-0.3,0.9-1.9,0.8-1.8,2.1
				c0.6,0,0.5-0.6,0.8-0.8c0.7,0,1.1,0.3,0.7,1.2c-0.3,0.4-1.2,0-1.4,0.8c0.5,0.2,0.8-0.2,1.3,0c0.5,0.3,0.3,0.8,0.5,1.1
				c0.6,1.3,0.7,2.6,0.3,4c0.6,0.5-0.1,1.2,0.2,1.8c0.2,0.4,0,0.8-0.3,1.1c-0.2,0.2-0.5,0.4-0.7-0.1c-0.1-0.4-0.5-0.4-1.1-0.3
				c0.8,0.2,0.6,0.9,0.9,1.2c0.4,0.1,0.7-0.3,1.1-0.3c0.2,0.6,0.3,1.4,1.3,1.5c0.4,0,0.5,1.2,0.1,1.5c-0.4,0.4-0.4,0.4,0,0.6
				c0.2,0.1,0.4,0.2,0.7,0.3c-0.1,0.7-0.4,1.2-0.9,1.5c0.1,0.4,0.4,0.3,0.6,0.5c-0.1,0.3-0.5,0.6-0.5,1c0.4,0.5,1,0.2,1.5,0.5
				c0,0.9,1,2-0.6,2.6c0,0.4,0.9,0.6,0,1.1c-0.4,0.2-0.4,1.4,0.4,1.8c-0.4,0.9-0.4,0.9-1.4,0.8c0.1-0.3,0.2-0.7,0.3-1.2
				c-0.5,0.3-0.7,0.4-1,0.6c-0.1,0.5,0.4,0.7,0.4,1.2c2.6-0.4,3.2,1.8,4.5,3.3c-0.5,0.5-1,1-1.6,1.1c-0.6,1.2,0.3,2.3,0,3.5
				c-1,0.1-1,0.1-1.4-1.1c-0.5,0.1-0.6,0.8-1.3,0.8c0.5,0.2,0.3,0.8,0.6,1.1c0.6,0.1,0.9-0.8,1.7-0.3c0.5,0.3,0.9,0.5,0.9,1
				c-0.1,0.7,0.3,1.2,0.5,1.8l0,0c-0.4,0.3-1.2-0.6-1.5,0.4c0.4,0.2,0.7,0.4,1,0.6l0,0c0.2,0.8-0.3,0.8-0.9,0.7
				c0.1,0.7,0.6,0.5,0.9,0.8c0.4,0.3,0.7,0.6,0.4,1.2c-0.3,0.5-0.8,0.9,0,1.5c0.3,0.2,0.1,1,0.3,1.6c0.1,0.3,0.2,0.7,0.7,0.5
				c-0.2,0.7-0.9,1.2-0.9,1.9c-0.4,0.1-0.5-0.1-0.7-0.3c-0.1,0.6-0.7,0.8-0.7,1.4c0.6,0.6,1.3-0.6,2,0.2c-1.3,0.9,0,1.6,0.2,2.4
				c-0.5,0.4-0.6-0.3-1-0.2c-0.5,0.7,0.7,0.9,0.4,1.5c0.3-0.3,0.6-0.3,1,0.1c0,0.8-1,0.6-1.3,1.2c1,0.3,0.5,1.6,1.4,2
				c-0.2,0.6-0.7,0.3-1,0.6c0,0.7,0,1.3-0.6,1.7c0.3,0.4,0.7,0.1,0.9,0.3c0.1,0-0.8,0.1-0.1,0.4c0.2,0.1,0.5,0.3,0.7,0.4
				c-0.3,0.5-0.5,0.9-0.3,1.5c0.4,0.1,0.4-0.5,0.8-0.4c0.2,1.3,0.1,2.6-0.8,3.9c0.5,0.2,1,0.3,1.4,0.7c-0.8,0.6-1.3,1.5-1.7,2.6
				c0.4,0.2,0.8,0.4,1,0.8c-0.2,0.5-0.8,0-1,0.4c0.8,1.2,0.7,1.6-0.4,3c0,0.2,0.2,0.4,0.4,0.4c0.2,0.1,0.4,0.1,0.6,0.4
				c-0.1,1-1,2.2,0.4,3c-0.3,0.8-1.1,0.3-1.4,0.8c0.5,0.5,0.4,1-0.4,1.6c0.2,0.4,0.7,0.3,1,0.6c0.2,0.2,0.4,0.3,0.4,0.7
				c-0.1,0.5-0.3,0.3-0.6,0.1c-0.1,0.3-0.4,0.6-0.7,0.7c0.2,0.6,0.8,0.2,1,0.7c-0.2,0.7-1.2,0.2-1.4,0.9c0.6,0.4,1.2,0,1.9-0.1
				c-0.5,1.2-1.4,2.1-1.7,3.4c-0.3,0.2-0.7-0.6-0.9,0.1c-0.2,0.4,0.1,0.5,0.3,0.8c0.4,0.5,0.5,1.3,0.3,1.9c-0.4,1,0,1.4,0.7,1.8
				c-0.5,0.4-0.5,0.4-1.5,0.1c0.4,0.7,0.8,1.2,1.2,1.9c-1.3-0.6-0.7,1.3-1.7,1c0.9,1.1,1.3,2.3,0.8,3.7c0.6-0.1,1-0.7,1.5-0.4
				c0.1,0.4-0.2,0.7-0.3,1.1c0.2,0.3,0.7,0.4,0.9,0.8c-0.4,0.2-0.8,0.5-1.2,0.7c0,0.3,0.3,0.2,0.5,0.3c-0.7,0.2-1.3,0.4-1.5,1.3
				c0.7,0,1,1,1.8,0.9c-0.6,1.5-0.9,3-2.6,3.5c-0.2,0.7,0.4,1,0.5,1.6c0.4-0.1,0.8-0.2,1.4,0c-1.1,0.4-1.6,1.2-2.1,2.2
				c1,0.1,1.7-0.2,2.5-0.5c-0.4,0.8-1.4,1.1-1.6,2c-0.4,0.2-0.8-0.3-1.1,0.1c0.2,0.3,0.6,0.5,0.4,0.9c-0.5,0.9-0.5,1.8-0.3,2.8
				c-0.4-0.6-0.8-1-1.5-0.6c-0.1,0.5,0.5,0.7,0.6,1c-0.3,0.3-0.5-0.3-0.9,0c0,0.6,1.1,0.6,0.8,1.5c-0.5-0.2-0.8-1-1.5-0.5
				c0,0.9-0.9,1.7-0.2,2.6c-0.4,0.4-0.9,0.3-1.1,0.8c-0.2,0.1-0.5-0.1-0.6,0.3c0.3,0.2,0.5,0.1,0.7-0.1c0.4,0,0.5,0.3,0.6,0.7
				c-0.9,0-1.5,0.5-1.7,1.3c-0.4,0.2-0.8-0.3-1.2,0.3c-0.3,0.5-0.7-0.3-1.2-0.3c-0.3,0.2-0.8,0.4-1.1,0.8c0.3,0.4,0.7,0.4,1.2,0.4
				l0,0c0,0.6-0.5,0.7-0.8,1.2c-0.5-0.2-1-0.2-1.7-0.7c0.4,0.9-0.8,1.6,0,2.4c-0.2,0.6-0.8,0.3-1,0.6c-0.5,0.4,0.5,1-0.2,1.5
				c-0.5-0.6-1.1-0.6-1.7,0c-0.5,0.5-1.2,0.2-1.8-0.1c0.1,1,0.6,0.9,1.1,0.7c0.2,0.2,0.2,0.4,0.2,0.6c-0.3,0.3-0.3-0.4-0.5-0.2
				c-0.5,0.3,0.2,0.6-0.2,0.9c-0.3-0.2-0.7-0.4-1.1-0.6c-0.8-0.4-1.4-0.2-1.4,0.6c0,1.1-0.4,1.8-1.5,2.4c-0.8,0.4-1.6,1-2.5,1.5
				c-0.4,0.2-0.6,0.6-0.8,1c-1.1-0.6-2.3-0.8-3.3-0.2c-0.9,0.5-1.9,1.1-2.5,2c-0.4,0.2-0.7,0-1-0.3c-0.3,0.3-0.5,0.4-0.7,0.8
				c-0.3,0.7-0.6,0.8-1.2,0.2c-0.3-0.3-0.7-0.4-1.1-0.3c-0.6,0.2-1,0.7-1.7,0.6c-0.3,0-0.3,0.5-0.5,0.7c-1.1-0.6-2.2-0.3-3.3,0
				c-0.3-0.1,0-0.7-0.5-0.8c0,0-0.1,0-0.2,0c-0.3,0.3-0.4,1-1.1,0.6c-0.1-0.1-0.2,0-0.2,0.1c0.1,0.8-0.7,0.3-0.8,0.5
				c-0.6,0.7-0.5,0-0.7-0.2c-0.2-0.2-0.4-0.1-0.6,0c-0.9,0.6-1.7,0.4-2.6,0.1c-0.6-0.2-1.1-0.2-1.3,0.5c-0.1,0.4-0.7,0.3-0.9,0.7
				c-0.7-0.2-1.3-0.6-2.1,0c-0.6,0.4-1.4,0.1-1.8-0.6c-1.4,0.4-3.2-0.6-4.1,1.3c-0.3-0.1-0.6-0.2-0.8-0.1c-1.3,0.6-2.5-0.1-3.8-0.2
				c-0.7-0.1-1.4,0-2,0.3c0.1,0.3,0.3,0.4,0.5,0.7c-0.8,0.3-0.2,1.6-1.3,1.6c-0.5-0.2,0-0.7-0.4-0.9c-0.5-0.3-1.2,0.1-1.5,0.7
				c-0.4,0.7-0.7,1.4-1.7,1.1c0.1-0.8,1.1-1.1,0.9-2c-0.7,0-0.5,0.6-0.7,0.8c-2.6-0.2-5,0.4-7.5,0.7c0.1,0.6,0.5,0.4,0.8,0.7
				c-0.6,0.1-0.8,1-1.7,0.5c-0.2-0.2,0.5-0.7,0-1c-0.5-0.1-0.4,0.6-0.8,0.7c-0.1-0.4-0.3-0.7-0.8-1c-0.9,1.1-2.6,0.2-3.6,1.4
				c-0.4-0.7-0.9-1.1-1.6-0.4c-0.3,0.3-0.6-0.3-0.9-0.1c-0.7,1-1.2,0.9-2.6,0.8c-1-0.1-2.1-1-3.2-0.1c-0.3,0.2-0.8,0.1-1.3,0.1
				c0.4,0.5,0.5,1.2,1.4,0.9c-0.6,0.4-1,0.3-1.4-0.2c-0.2-0.3-0.3-0.8-0.9-0.6c0.3,0.2,0.4,0.7,0.8,0.8c0,0.3-0.2,0.4-0.4,0.3
				c-0.6-0.4-1.4-0.6-1.5-1.5c-0.9,0.1-1.6,0.4-2.3,0.8c-0.4-0.3-0.2-1.3-0.7-1.3c-0.5,0-1.1,0.4-1.8,0.4c-0.3-0.5,0-0.8,0.6-1.2
				c-1.6-0.3-2.7,0.9-3.9,1c-0.4-0.3,0-0.5,0-0.7c-0.5,0.1-0.7,0.2-1.3,0.6c-0.3,0-0.4-0.3-0.8-0.5c-0.7,1.2-2,0.6-3,1.1
				c-0.3,0.1-0.6,0.2-1,0.3c0.1-1.2-1.6-0.8-1.7-1.9c-0.8,0.4,0.1,1-0.3,1.5c0,0-0.1,0.2-0.2,0.1c-1.1-0.3-2.1,0-3.1,0.2
				c-1,0.2-1.9,0-2.7-0.5c-0.5-0.3-1.1-0.1-1.6-0.3c-0.3-0.1-0.2,0.3-0.4,0.5c0.4,0.3,0.7-0.3,1,0.1c-0.9,1-1.5,1-2.7,0.1
				c0.2-0.5,0.9,0,1.1-0.5c-0.3-0.5-0.7,0.3-1,0c-0.5-0.4,0.1-0.8-0.1-1.1c-0.6,0-0.7,0.5-1,0.7c-0.1,0.5,0.6,0.4,0.5,0.8
				c0,0.5-0.8,0.2-0.7,0.8c-0.3-0.5-0.5-0.8-1.1-0.9c-0.6,0.2-1,0.9-1.8,0.9l0,0c0.3-0.4-0.1-0.5-0.2-0.7c0.3,0,0.6,0,0.6-0.4
				c-0.4-0.1-0.6,0-0.6,0.5c-0.9-0.1-1.8-0.3-2.6,0.6c-0.3,0.3-1.1,0.4-1.8,0.3c-0.5-0.3,0.1-0.8-0.4-1.1c-0.8-0.1-1.5,0.6-2.3,0.6
				c-0.3-0.3,0-0.7-0.3-1.1c-0.8,0.5-1.6-0.3-2.4,0.2c-0.2,0.4,0.3,0.7,0.1,1.2c-0.7-0.3-1.4,0.2-2.1-0.1c0-0.3,0-0.6,0.1-1
				c-1.2-0.2-2.3-0.1-3.6,0c-0.1-0.2-0.2-0.6-0.3-0.8c-0.9-0.7-1.4,0.6-2.2,0.3c-0.2-0.4,0.3-0.7-0.1-1.1c-0.6,0.4-1.3,0.6-2,0.4
				l0,0c-0.3-0.9-0.6-1-1.2-0.6c-0.6,0.4-1.1,0.4-1.7,0c-0.6-0.4-1.4-0.5-2.1-0.4l0,0c-0.4-0.5-0.7-1-1.4-0.4
				c-0.3,0.2-0.7,0-1.1,0.1c-0.7,0.1-1.3,0-2,0.1c-0.5,0-1.1,0.5-1.4-0.4c0-0.1-0.5-0.1-0.6,0.1c-0.2,0.3-0.2,0.7,0.3,0.9
				c-0.4,0.3-0.7,0.8-1.3,0.2c-0.3-0.3-0.8,0.1-0.6,0.6c0.1,0.4,0.1,0.8,0.1,1.2c-0.6,0.1-0.6-0.5-0.9-0.6c-1.2,1.4-2,3.1-3.6,4.3
				c-0.2-0.7-0.8-0.5-1.1-0.7c-0.4-0.2-0.8,0-0.8,0.4c0,0.8-0.9,1.2-1.1,1.9c-0.2,0.5-0.6,1.1-1.4,1c-0.2,0-0.5,0.3-0.7,0.4
				c-0.4,0-0.5-0.4-0.8-0.5c-0.7,0.4-1,1.3-1.8,1.7c-0.7,0.3-1.7-0.4-2.2,0.6c0,0.3,0.4,0.4,0.6,0.6c-0.5,0.2-0.9,0.4-1.3,0.6
				c-0.4-0.6-1.1-0.6-1.6-1.2c-0.2,1-1.2,1.3-1.5,2.2c-0.1,0.3-1,0.7-1.7,0.2c0.4-0.1,0.7-0.3,0.8-0.7c-0.6-0.2-0.8,0.2-0.9,0.6
				c-0.4,0.8-1.7,1-1.7,2.2c-1.1-0.2-1.1-1.1-1.2-1.9c-1,0.1-0.4,1.2-1,1.5c-0.2-0.4-0.6-0.3-0.9-0.2c-0.2,0.3,0.2,0.8-0.4,1.1
				c-0.3,0.1-0.5-0.7-1.1-0.4c-0.1,0.3,0.2,0.7,0,1c-0.9-0.3-1.7-0.3-2.1,0.5c-0.7,0.1-0.7-0.5-1.3-0.5c-0.2,0.1-0.2,1.3-0.9,0.5
				c-0.1,0.2-0.1,0.4-0.1,0.6l0,0c-0.5,0.1-1-0.5-1.6-0.1c0.2,1,0.2,1-1.6,0.9c-0.1,0.4,0.4,0.5,0.4,0.8c-1.3,0.3-2.2-0.8-3.3-1.4
				c-0.2,0.6-0.1,1.2-0.6,1.6c-0.1,0.1-0.2,0-0.3,0c-1.3-0.4-1.6-0.3-3-0.3c-0.5,0-1,0.5-1.4-0.5c-0.2,0.8,0.3,1.6-0.6,1.7
				c-0.6-0.3-0.2-1.2-1-1.3c-0.2,0.3-0.1,0.9-0.5,0.9c-1.2,0-2.1,1-3.2,1.2c-0.5,0.1-0.7-0.1-0.7-0.5c0-0.3,0.1-0.6-0.2-0.9
				c-0.8,1.3-2.3,1.3-3.4,2.1c-0.5-0.2-1-0.8-1.8-0.6c-0.6,0.2-0.7-0.4-1-0.7c-1,0.1-1.6,0.8-1.9,1.7c-0.7-0.3-1.3-0.7-1.1-1.6
				c-0.3-0.2-0.5-0.1-0.8,0.1c-0.9,0.5-1.9,0.5-2.8-0.1c-0.2-0.1-0.5-0.2-0.6,0c-0.3,0.5-0.7,0.3-1,0c-0.5-0.3,0.1-0.6,0.1-0.8
				c-0.3-0.4-0.6-0.2-0.8-0.1c-0.6,0.2-1.3,0-1.6-0.5c-0.3-0.5-0.6-1.2-0.2-1.8c0.3-0.4,0.2-0.4-0.2-0.8c0.5-1,1.1-2,1.6-3.1
				c0.2-0.6,0.3-0.9,1-0.8c0.4,0.1,0.8-0.6,1.4,0.1c0-0.6,0.5-1.1-0.4-1.2c-0.3,0-0.2-0.5-0.1-0.8c0.4-0.1,0.6,0.1,0.8,0.3
				c0.2,0.1,0.4,0.2,0.7,0.3c0.3-0.8,0.9-1.1,1.7-1.2c1.3-0.1,1.9-1.4,3.1-1.8c0.4-0.1,0.6-0.4,1.2-0.1c0.6,0.3,1.1-0.5,1.3-1
				c0.2-0.4,0.4-0.5,0.6-0.7c0.4,0.1,0.3,0.6,0.7,0.5c0.3-0.6,0.3-0.6-0.3-1.4c0.6-0.5,1.1-1.1,1.9-1.3c0.2-0.1,0.5-0.4,0.3-0.7
				c-0.4-0.7,0.1-0.9,0.6-1c0.1-0.5-0.8-0.6-0.4-1.1c0.2-0.4,0.6-0.2,0.9-0.2c0.1,0.1,0.1,0.4,0.4,0.3
				C48.9,215.6,48.8,215.4,48.6,215.3z M55.1,105.2c0.1,0,0.4-0.1,0.3-0.3c-0.1-0.2-0.3-0.1-0.5,0.1c-0.1,0.1-0.1,0.2-0.1,0.3
				C54.9,105.4,55,105.3,55.1,105.2z M150.5,29.5c-0.1-0.1-0.1-0.2-0.2-0.1c-0.1,0.1,0,0.2,0.1,0.2c0.1,0.2,0,0.5,0.4,0.4
				C150.9,29.8,150.6,29.7,150.5,29.5z M245.4,185.9c0.3-0.2,0.5-0.5,0.3-0.9C245.3,185.3,245.4,185.6,245.4,185.9
				c-0.2,0.1-0.3,0.1,0,0.3C245.4,186.1,245.4,186,245.4,185.9z M250.4,123.6c-0.1-0.1,0-0.4-0.3-0.4c0,0-0.1,0-0.1,0.1
				C250,123.6,250.3,123.5,250.4,123.6c0,0.4,0.1,0.7,0.5,1C251.2,123.9,250.9,123.7,250.4,123.6z M100.8,100.3
				c-0.2,0.1-0.5,0-0.6,0.3c0.1,0.3,0.2,0.6,0.3,0.9C100.3,101.1,100.7,100.7,100.8,100.3L100.8,100.3L100.8,100.3z M33.2,230.8
				c0,0,0-0.1,0-0.1c0,0,0,0-0.1,0C33.1,230.7,33.1,230.8,33.2,230.8c0,0.5,0,0.9,0.1,1.5C34.1,231.5,34.1,231.5,33.2,230.8z
				 M250.9,137.5c0.5-0.3,0.2-0.7,0.1-1.1c0-0.3-0.3-0.6-0.1-0.9c0.2-0.3,0.3-0.7-0.1-0.8c-0.4-0.1-0.7,0.2-0.7,0.7
				c0,0.4-0.2,0.8-0.2,1.2C250.4,136.7,251.1,136.6,250.9,137.5c-0.1,0-0.3,0.1-0.1,0.2C250.9,137.7,250.9,137.6,250.9,137.5z
				 M102.5,106.5c0.1,0.1,0.1,0.3,0.3,0.1C102.7,106.6,102.6,106.6,102.5,106.5c-0.3-0.7-0.6-1.3-1.6-1.2c0.5,0.7-1,1.5,0.2,2.1
				C101.5,107.1,101.9,106.6,102.5,106.5z M101.5,102.5c-0.3,0.1-0.4-0.2-0.7-0.3c-0.1,0.2-0.1,0.3-0.2,0.5
				c-0.4,0.5-0.8,1.1-1.2,1.6c-0.2,0.3-0.2,0.6,0.1,0.7c0.3,0.2,0.6,0.1,0.8-0.3c0.1-0.2,0.1-0.6,0.4-0.6c0.5-0.1,0.6-0.3,0.5-0.8
				C101.2,103,101.4,102.7,101.5,102.5c0.1-0.1,0.2-0.1,0.1-0.3C101.6,102.3,101.6,102.4,101.5,102.5z M174.2,130.8
				c0,0.3,0.1,0.5,0.5,0.4C174.5,131,174.3,130.9,174.2,130.8c0-0.5-0.4-1-0.2-1.5c-0.2-0.2-0.4,0.2-0.6-0.1c0-0.3,0.3-0.4,0.5-0.6
				c0.2-0.2,0.1-0.9-0.2-0.8c-0.1,0.6-0.3,0.3-0.6,0c0.3,0.9-0.1,1.2-0.8,1.3C172.7,129.9,173,130.8,174.2,130.8z M113.7,173.7
				L113.7,173.7L113.7,173.7c0.5,0.9,1.7,0.7,2.3,1.6c0.3,0.5,0.9,0.7,0.7,1.4c-0.1,0.2,0.2,0.3,0.5,0.3c-0.2-0.8-0.1-1.6-0.5-2.2
				c-0.3-0.1-0.5,0.3-0.8,0c-0.1-0.4,0.5-0.2,0.5-0.6c-0.3-0.1-0.7,0.2-1-0.1c0.1-0.4,0.1-0.7-0.2-0.9
				C115.1,174.1,114.3,173.7,113.7,173.7z M112.3,82.7c-0.1-0.5-0.7,0.2-0.8-0.2c-0.1-0.3-0.1-0.5,0.1-0.7c0.4-0.7,0.1-1.2-0.6-1.3
				c-0.8-0.1-1.5-0.5-2.3-0.7c-0.2-0.1-0.6-0.1-0.5,0.2c0.1,0.6-0.5,0.5-0.7,0.8c0.1,0.3,0,0.7,0.3,0.7c0.5,0,0.5-0.5,1-0.6
				c-0.1,1,0.8,1.1,1.5,1.6c-1.2,0.1-1.3,0.7-0.9,1.5c0.5-0.1,0.9,0.1,1.3,0.3c0.1,0.3,0.4,0.6,0.5,1c0.3,1.1,0,2.1,0.3,3.2
				c0.3,0.8,0.1,1.7,0.3,2.6c0.3,1.2,0.3,2.5,0.2,3.8c0,0.4-0.1,0.8,0,1.3c0,0.5-0.1,1-0.1,1.6c0.1,2,0,4.1,0,6.1
				c0,0.5-0.5,0.7-0.4,1c0.2,1,0,2-0.1,3c-0.2,1.5-0.1,3.1-0.1,4.6c0,1.8-0.4,3.6-0.1,5.4c0.1,0.4,0.1,0.9,0,1.3
				c-0.2,1.6-0.2,3.1,0,4.7c0.2,1.2,0.3,2.4,0.1,3.7c-0.1,0.6-0.2,1.3-0.1,2c0.1,0.9,0.3,1.9,0.1,2.8c-0.1,0.5-0.2,1.1-0.1,1.5
				c0.5,1.8,0.2,3.6,0.1,5.4c0,0.5-0.6,1.2-0.4,1.6c0.2,0.5,0.2,0.7,0.2,1.2c0.1,1.3-0.5,2.6,0.1,3.8c0.1,0.1,0.1,0.3,0.1,0.5
				c-0.4,1.2-0.3,2.5-0.2,3.7c0,0.5-0.2,1-0.1,1.5c0.1,0.5-0.1,1.8,0.1,2.3c0.1,0.3,0.1,0.6,0,0.8c-0.2,1-0.3,1.9-0.1,2.9
				c0.2,1-0.6,2.1,0.4,3c0,0,0,0.2,0,0.2c-0.3,0.6,0.1,0.9,0.4,1.4c0.4,0.8,0.8,1.5,1.8,1.7c0.1,0,0.1,0.4,0.4,0.4
				c0.4-0.1,0.8-0.2,1.2-0.3c0.8,0,1.8,0.8,2.5-0.3c0.9,0.2,1.8-0.3,2.5,0.1c0.9,0.5,1.5-0.3,2.3,0c0.6,0.2,1.5,0,2.2-0.3
				c0.7-0.3,1.5,0,2.1-0.2c0.7-0.3,1.4,0.1,2.1-0.3c0.2-0.1,0.3,0.4,0.5,0.3c0.5-1.1,1.4-0.4,2.1-0.5c-0.1-0.4,0-0.6,0.2-0.9
				c0.5-0.8,1-1.7,0.8-2.5c-0.4-1.7,0-3.4-0.3-5.1c-0.1-0.5-0.4-0.9-0.3-1.3c0.4-1.3,0.1-2.7,0.2-4c0.1-1.7,0.2-3.4,0-5.1
				c0-0.3-0.3-0.6-0.1-0.8c0.7-0.6,0.3-1.2,0.2-1.8c-0.1-0.9,0.2-1.1,1.1-1.3c0.6-0.2,1,0.3,1.5,0.4c0.6,0.1,1.2-0.1,1.7,0
				c0.6,0.1,1.1,0.2,1.7,0.1c0.6-0.1,1.4,0,2,0.2c1.6,0.5,3.1,0,4.5-0.1c0.5,0,0.9,0.3,1.2,0.1c1-0.5,2-0.5,3.1-0.7
				c0.3-0.1,0.7-0.6,1.1-0.6c1.8,0,3.4-0.8,5.2-0.9c1.2-0.1,2.4-0.7,3.6-1.1c0.8-0.2,1.5-0.6,1.9-1.3c0.4,0,0.4,0.5,0.9,0.4
				c0.1-0.2,0.3-0.5,0.6-0.7c0.8-0.4,1.6-0.8,2.2-1.4c0.6-0.6,1.4-1.1,2-1.8c0.7-0.9,2-1.3,2-2.7c0,0,0.2-0.1,0.3-0.1
				c0.7-0.2,0.8-0.7,0.6-1.4c0.9,0.1,1.5-0.3,1.7-1.1c0.1-0.7,0.5-1.2,0.9-1.8c0.5-0.9,1-1.7,0.9-2.8c1.3-1.2,1.2-2.9,1.7-4.4
				c0.6-2.1,1-4.2,1.5-6.4c0.1-0.3,0-0.6,0-1c0-1.3,0-2.7,0-4c0-1.2,0.2-2.5-0.1-3.7c-0.3-1.3-0.6-2.5-0.8-3.8
				c-0.1-0.8-1-1.4-0.6-2.4c-0.8-0.3-0.7-1.1-1-1.7c-0.3-0.6-1.1-0.9-1.5-1.5c-0.3-0.4-0.3-1-0.6-1.3c-0.9-0.9-1.5-2-2.2-3
				c-0.2-0.3-0.3-0.4-0.7-0.4c-0.3-0.1-1,0-1-0.1c0.1-0.7-0.9-0.6-0.9-1.2c0-0.2-0.1-0.2-0.3-0.3c-1.5-0.7-2.9-1.4-4.5-1.9
				c-0.5-0.2-0.8,0-1.3,0.1c0-0.5-0.2-0.7-0.8-0.9c-2.4-0.8-4.9-1.2-7.3-1.9c-1-0.3-1.9-0.7-2.9-0.7c-2,0-3.9-0.4-5.9-0.6
				c-1.8-0.1-3.5,0-5.3,0c-0.4,0-0.7,0.2-0.9,0.5c-0.3-0.4-0.7-0.6-1.2-0.3c-0.2,0.1-0.3,0.2-0.5,0.2c-1.2-0.2-2.4,0.4-3.7,0.2
				c-0.4-0.1-0.9-0.1-1.4,0c-1.2,0.2-2.3,0.4-3.5,0.3c-0.6,0-1.2,0-1.9,0.2c-0.9,0.3-1.9,0.1-2.9,0.1c-0.9,0.1-1.9-0.5-2.8,0.2l0,0
				c-0.7,0.2-1.2-0.5-2-0.3c-1.1,0.2-2.3,0.3-3.5-0.1C113.9,82.1,113.1,82.3,112.3,82.7z M197,163.4c0.2-0.4,0.2-0.7,0.8-0.6
				c0.7,0.1,1.4,0.3,2.1,0.4c1.1,0,2.2-0.2,3.3-0.2c0.2,0,0.5,0,0.6-0.3c0.1-0.2,0.4-0.3,0.5-0.1c0.5,0.4,0.8,0,1.1-0.2
				c0.5-0.4,1.1-0.8,1.7-1.1c0.6-0.3,1-0.9,1.4-1.5c0.5-0.9,0.6-1.9,0.8-2.9c0.3-1.3,0.4-2.5,0.3-3.8c0-0.5-0.4-0.9-0.3-1.5
				c0.2-1.2-0.1-2.5-0.1-3.7c0-1.2-0.5-2.4-0.6-3.6c0-0.3-0.3-0.5-0.5-0.8c-0.5-0.5-1.1-0.7-1.7-1c-2.2-1-4.6-1.2-7-1.3
				c-1.7-0.1-3.3-0.5-5-0.4c-0.1,0.1,0,0.4-0.3,0.5c-0.2-0.6-0.6-0.8-1.1-0.6c-0.2,0.1-0.5,0.1-0.7,0.1c-1.7-0.4-3.2,0.5-4.8,0.8
				c-0.2,0-0.5,0.3-0.6,0.7c-0.1,0.6-0.2,1.1-0.4,1.7c-0.7,2.2-1.1,4.5-1,6.8c0,1.4-0.1,2.8,0.1,4.2c0.3,2,0.6,4,1.4,5.9
				c0.3,0.8,0.9,1.5,1.7,1.6c1,0.1,2,0.5,3.1,0.4c0.6-0.1,1.3,0.1,1.8,0.6c0.4-0.5,0.6-0.6,1.1-0.4c0.2,0.1,0.4,0.4,0.7,0.2
				C195.8,162.6,196.4,162.9,197,163.4z M92.5,145.2c-0.8,0.3-1.5-0.8-2.5-0.2c0.7,0.9,1.7,1.1,2.6,1.5
				C92.3,146.1,92.6,145.7,92.5,145.2z M246,187.8c-0.4-0.3,0.3-0.8-0.3-0.9c-0.8-0.1-0.4,0.8-1.2,1c1.1,0.1,1.8,1.3,2.5,0.1
				c0-0.3-0.2-0.5-0.4-0.7C246.4,187.3,246.5,187.8,246,187.8z M98.3,41.8c0-0.5,0.1-1,0.1-1.6c-1,0.3-2.1-0.5-3.1,0.1
				c0.6,0.6,1.2-0.2,1.8,0.1C97.8,40.6,97.5,41.5,98.3,41.8z M251.2,130.5c-0.9-0.6,0-1.3-0.1-2c-0.4,0.2-0.9,0-1.1,0.5
				C250.5,129.3,250.1,130.4,251.2,130.5z M32.3,232.7c0.4,0.2,0.7,0.5,1,0.8c-0.2-0.3,0-0.7-0.2-1
				C32.8,232.4,32.5,232.3,32.3,232.7z M56.3,124.6c-0.8,0.1-0.8,0.1-0.3,0.9C56.2,125.2,56.3,124.9,56.3,124.6z M56.4,157.3
				c-0.3,0.2-0.6,0.3-0.8,0.5C56.4,158.2,56.4,158.2,56.4,157.3z M56.3,153.9c-0.2,0.2-0.5,0.4-0.3,0.8c0.1,0.2,0.4,0.2,0.6-0.1
				C56.5,154.4,56.6,154,56.3,153.9z M248.6,122.5c0.2,0.1,0.4,0.2,0.5,0c0,0,0-0.2-0.1-0.2C248.9,122.2,248.7,122.2,248.6,122.5z
				 M55.9,140.2c-0.4,0.2-0.6,0.5-0.3,0.9C55.8,140.8,56,140.6,55.9,140.2z M57,168c-0.2,0.2-0.2,0.4,0,0.6c0,0,0.3,0,0.3-0.1
				C57.4,168.2,57.3,168.1,57,168z M56.9,165.6c-0.1,0-0.2,0.1-0.2,0.2c0,0.1,0.1,0.2,0.2,0.2c0.2,0,0.3,0,0.3-0.2
				C57.1,165.6,57,165.6,56.9,165.6z M188.1,31.9c-0.2-0.2-0.4,0-0.6,0C187.8,31.9,188,32,188.1,31.9z M248.6,186.8
				c0.2,0.1,0.4,0.2,0.6,0C249,186.6,248.8,186.5,248.6,186.8z M59.6,72.5c0.1,0,0.2-0.1,0.2-0.2c0-0.1-0.1-0.2-0.2-0.1
				c-0.1,0-0.1,0.1-0.1,0.2C59.3,72.5,59.5,72.5,59.6,72.5z M54.8,111.9c0,0.1,0.1,0.2,0.2,0.3c0.1,0.1,0.2,0,0.2-0.1
				c0.1-0.2,0-0.3-0.2-0.3C54.9,111.8,54.9,111.9,54.8,111.9z M140.4,31.1c-0.2-0.1-0.2,0-0.3,0.1c0,0.1,0.1,0.2,0.2,0.2
				c0.1,0,0.2,0,0.2-0.1C140.5,31.2,140.4,31.2,140.4,31.1z M55,113.8c0-0.1,0-0.2-0.1-0.2c-0.1,0-0.2,0.1-0.2,0.1
				c0,0.1,0.1,0.1,0.1,0.2C54.9,113.8,54.9,113.8,55,113.8z M237.1,52.7c0,0.1-0.1,0.1-0.1,0.2c0,0.1,0.1,0.1,0.1,0.2
				c0-0.1,0.1-0.1,0.1-0.2C237.2,52.8,237.1,52.7,237.1,52.7z M65,55.1c0-0.1,0-0.2-0.1-0.2c-0.1,0-0.1,0-0.2,0.1
				c-0.1,0.1,0,0.2,0.1,0.2C64.9,55.2,64.9,55.2,65,55.1z M252.7,130.4C252.7,130.4,252.6,130.4,252.7,130.4c0,0.1,0,0.1,0,0.1
				C252.8,130.5,252.8,130.4,252.7,130.4C252.7,130.3,252.7,130.4,252.7,130.4z M55.3,149.3C55.3,149.3,55.3,149.3,55.3,149.3
				c0,0.1,0,0.1,0,0.1C55.4,149.4,55.5,149.3,55.3,149.3C55.4,149.3,55.3,149.3,55.3,149.3z M55,111C54.9,111,54.9,110.9,55,111
				c-0.1-0.1-0.1,0-0.2,0C54.8,111,54.8,111.1,55,111C54.9,111.1,54.9,111,55,111z M252.3,171.8
				C252.2,171.8,252.2,171.8,252.3,171.8c-0.1-0.1-0.1,0-0.1,0C252.2,171.9,252.2,171.9,252.3,171.8
				C252.2,171.9,252.3,171.9,252.3,171.8z M155.1,29.2L155.1,29.2L155.1,29.2L155.1,29.2z M240,60.7L240,60.7L240,60.7L240,60.7z
				 M207.3,33.8L207.3,33.8L207.3,33.8L207.3,33.8z M224,38.8C224,38.8,224,38.8,224,38.8c-0.1-0.1-0.1,0-0.2,0
				C223.9,38.8,223.9,38.9,224,38.8C224,38.9,224,38.8,224,38.8z"/>
			<path class="st0" d="M252.3,113c1,0.4,0.7,1.5,1.4,2.3c-0.6-0.1-1-0.1-1.2-0.2c-0.4-0.3,0-1.1-0.7-1.2l0,0
				C251.7,113.5,252.1,113.3,252.3,113L252.3,113z"/>
			<path class="st0" d="M245.9,72.5c-0.7-0.7-0.1-1.3,0.2-2c1.2,0.5,0.3,1.3,0.5,2C246.3,72.5,246.1,72.5,245.9,72.5L245.9,72.5z"/>
			<path class="st0" d="M245.5,65.4c0,0.8-0.6,0.8-0.6,1.2c-0.7-0.1-1.2-0.3-1.1-1.1C244.4,65.3,244.9,65.9,245.5,65.4z"/>
			<path class="st0" d="M249,86.5c0.6,0.5,0.8,0.9,0.2,1.3c-0.2,0.2-0.5,0.3-0.7,0C248,87.2,248.8,87,249,86.5z"/>
			<path class="st0" d="M155.8,28.5c0.5-0.1,1-0.1,1.5-0.2C156.9,28.8,156.3,28.5,155.8,28.5z"/>
			<path class="st0" d="M110.6,215.6c0.1,0.2,0.1,0.4,0,0.6c-0.3,0-0.4-0.1-0.3-0.4C110.3,215.7,110.5,215.7,110.6,215.6
				L110.6,215.6z"/>
			<path class="st0" d="M146.4,30.1c0.1-0.1,0-0.4,0.3-0.4c0.2,0,0.2,0.2,0.2,0.4l0,0C146.7,30.1,146.5,30.1,146.4,30.1L146.4,30.1z
				"/>
			<path class="st0" d="M154,217.2c-0.2,0.2-0.4,0.2-0.6,0C153.6,217,153.8,217,154,217.2z"/>
			<path class="st0" d="M252.2,160.6c0.1,0,0.2,0,0.3,0c-0.1,0-0.1,0-0.2,0C252.3,160.7,252.3,160.6,252.2,160.6z"/>
			<path class="st0" d="M139,30C139,30,138.9,30,139,30c-0.1,0-0.1,0-0.2,0C138.9,29.9,138.9,29.9,139,30C139,29.9,139,29.9,139,30z
				"/>
			<path class="st0" d="M55.5,117.1c-0.1,0-0.1,0.1-0.2,0.1C55.2,117.2,55.3,117.1,55.5,117.1C55.4,117.2,55.5,117.1,55.5,117.1
				L55.5,117.1z"/>
			<path class="st0" d="M105.6,214.7c0,0.2-0.1,0.2-0.3,0.1C105.3,214.7,105.5,214.7,105.6,214.7L105.6,214.7z"/>
			<path class="st0" d="M226.5,39C226.5,39.1,226.5,39.1,226.5,39c0,0.1-0.1,0.1-0.1,0.1c-0.1,0-0.1-0.1,0-0.1
				C226.4,39,226.5,39,226.5,39z"/>
			<polygon class="st0" points="56,172.7 55.9,172.7 56,172.7 			"/>
			<path class="st0" d="M243,196C243,196,243.1,195.9,243,196C243.1,195.9,243.1,196,243,196C243,196,243,196,243,196L243,196z"/>
			<path class="st0" d="M242.2,63C242.2,63.1,242.2,63.1,242.2,63c-0.1,0.1-0.1,0-0.1,0C242.1,63,242.1,63,242.2,63
				C242.2,63,242.2,63,242.2,63z"/>
			<path class="st0" d="M210.6,32.5C210.6,32.4,210.7,32.4,210.6,32.5C210.6,32.4,210.6,32.4,210.6,32.5
				C210.6,32.5,210.6,32.5,210.6,32.5z"/>
			<path class="st0" d="M130.8,218.1c0,0.1-0.1,0.1-0.2,0.1C130.7,218.1,130.7,218.1,130.8,218.1L130.8,218.1z"/>
			<path class="st0" d="M66.5,232.2C66.5,232.2,66.6,232.2,66.5,232.2c0.1,0.1,0.1,0.1,0.1,0.1C66.5,232.3,66.5,232.3,66.5,232.2
				L66.5,232.2z"/>
			<path class="st0" d="M48.6,234.9C48.7,234.9,48.7,235,48.6,234.9c0,0.1,0,0.1,0,0.1C48.6,235,48.6,235,48.6,234.9
				C48.6,234.9,48.6,234.9,48.6,234.9z"/>
			<path class="st0" d="M155.4,216.2C155.4,216.2,155.4,216.2,155.4,216.2c0,0.1,0,0.1,0,0.1C155.3,216.3,155.3,216.2,155.4,216.2
				C155.3,216.2,155.4,216.2,155.4,216.2z"/>
			<path class="st1" d="M120.2,82.8c0.9-0.6,1.9-0.1,2.8-0.2c1-0.1,2,0.2,2.9-0.1c0.6-0.2,1.2-0.2,1.9-0.2c1.2,0.1,2.3-0.2,3.5-0.3
				c0.5-0.1,1,0,1.4,0c1.3,0.2,2.4-0.4,3.7-0.2c0.2,0,0.4-0.1,0.5-0.2c0.5-0.4,0.8-0.2,1.2,0.3c0.2-0.3,0.5-0.5,0.9-0.5
				c1.8,0,3.5-0.1,5.3,0c2,0.1,3.9,0.6,5.9,0.6c1,0,2,0.4,2.9,0.7c2.4,0.7,4.9,1,7.3,1.9c0.5,0.2,0.7,0.4,0.8,0.9
				c0.4-0.1,0.8-0.2,1.3-0.1c1.5,0.6,3,1.3,4.5,1.9c0.2,0.1,0.3,0.1,0.3,0.3c0,0.6,1,0.5,0.9,1.2c0,0.1,0.7,0,1,0.1
				c0.4,0.1,0.5,0.2,0.7,0.4c0.8,1,1.3,2.1,2.2,3c0.3,0.3,0.3,0.9,0.6,1.3c0.4,0.6,1.1,0.9,1.5,1.5c0.3,0.6,0.2,1.4,1,1.7
				c-0.4,0.9,0.5,1.6,0.6,2.4c0.2,1.3,0.5,2.5,0.8,3.8c0.3,1.2,0.1,2.5,0.1,3.7c0,1.3,0,2.7,0,4c0,0.3,0,0.6,0,1
				c-0.5,2.1-0.9,4.3-1.5,6.4c-0.5,1.5-0.4,3.2-1.7,4.4c0.1,1.1-0.4,1.9-0.9,2.8c-0.3,0.6-0.7,1.1-0.9,1.8c-0.2,0.8-0.7,1.2-1.7,1.1
				c0.1,0.7,0.1,1.2-0.6,1.4c-0.1,0-0.3,0.1-0.3,0.1c0,1.4-1.3,1.8-2,2.7c-0.6,0.7-1.3,1.2-2,1.8c-0.6,0.6-1.5,0.9-2.2,1.4
				c-0.3,0.2-0.5,0.4-0.6,0.7c-0.4,0.1-0.5-0.3-0.9-0.4c-0.4,0.7-1.1,1.1-1.9,1.3c-1.2,0.4-2.4,1-3.6,1.1c-1.8,0.1-3.4,0.9-5.2,0.9
				c-0.4,0-0.8,0.5-1.1,0.6c-1,0.2-2.1,0.2-3.1,0.7c-0.3,0.2-0.7-0.1-1.2-0.1c-1.5,0.1-3,0.6-4.5,0.1c-0.6-0.2-1.4-0.3-2-0.2
				c-0.6,0.1-1.1,0-1.7-0.1c-0.6-0.1-1.1,0.1-1.7,0c-0.5-0.1-0.8-0.5-1.5-0.4c-0.8,0.2-1.1,0.5-1.1,1.3c0.1,0.6,0.4,1.3-0.2,1.8
				c-0.2,0.2,0.1,0.5,0.1,0.8c0.2,1.7,0.1,3.4,0,5.1c-0.1,1.3,0.2,2.7-0.2,4c-0.1,0.4,0.2,0.9,0.3,1.3c0.2,1.7-0.1,3.4,0.3,5.1
				c0.2,0.8-0.3,1.7-0.8,2.5c-0.2,0.3-0.4,0.5-0.2,0.9c-0.7,0.2-1.6-0.5-2.1,0.5c-0.3,0.1-0.3-0.4-0.5-0.3c-0.7,0.4-1.4,0-2.1,0.3
				c-0.7,0.3-1.4,0-2.1,0.2c-0.7,0.3-1.5,0.5-2.2,0.3c-0.8-0.3-1.5,0.5-2.3,0c-0.7-0.4-1.7,0.1-2.5-0.1c-0.7,1.1-1.7,0.2-2.5,0.3
				c-0.5,0-0.9,0.2-1.2,0.3c-0.4,0-0.3-0.4-0.4-0.4c-1-0.2-1.3-0.9-1.8-1.7c-0.3-0.5-0.7-0.8-0.4-1.4c0-0.1,0.1-0.2,0-0.2
				c-1-0.9-0.2-2-0.4-3c-0.2-1-0.2-1.9,0.1-2.9c0.1-0.3,0.1-0.5,0-0.8c-0.2-0.5,0-1.9-0.1-2.3c-0.1-0.6,0.1-1,0.1-1.5
				c-0.1-1.3-0.2-2.5,0.2-3.7c0-0.1,0-0.3-0.1-0.5c-0.6-1.2,0-2.5-0.1-3.8c0-0.4,0-0.7-0.2-1.2c-0.2-0.4,0.3-1,0.4-1.6
				c0.1-1.8,0.4-3.6-0.1-5.4c-0.1-0.4,0-1,0.1-1.5c0.1-1,0-1.9-0.1-2.8c-0.1-0.7,0-1.3,0.1-2c0.2-1.3,0-2.5-0.1-3.7
				c-0.2-1.6-0.2-3.2,0-4.7c0.1-0.5,0-1,0-1.3c-0.3-1.8,0.2-3.6,0.1-5.4c0-1.5-0.1-3.1,0.1-4.6c0.1-1,0.3-2,0.1-3
				c-0.1-0.3,0.4-0.5,0.4-1c-0.1-2,0-4.1,0-6.1c0-0.6,0.1-1.1,0.1-1.6c0-0.4,0-0.9,0-1.3c0.1-1.3,0.1-2.6-0.2-3.8
				c-0.2-0.9-0.1-1.8-0.3-2.6c-0.3-1,0-2.1-0.3-3.2c-0.1-0.4-0.4-0.6-0.5-1c0.4-0.7,0.7-1.5,1.7-1.5c0.8-0.5,1.6-0.6,2.4-0.4
				c1.1,0.4,2.4,0.2,3.5,0.1C119,82.3,119.5,83,120.2,82.8c-0.1,0-0.1,0.1,0,0.1c0,0,0.1,0,0.1,0C120.3,82.9,120.3,82.9,120.2,82.8z
				 M148.5,102.2c-0.9-1.1-2.2-0.9-3.4-1.2c-1.2-0.3-2.5-0.2-3.8-0.5c-0.6-0.1-1.2,0.1-1.7-0.4c-0.7,0.9-0.2-0.5-0.4-0.4
				c-0.8,0.2-1.5,0.9-2.1,0c-0.6,0.6-1.3,1.1-1.9,1.1c-0.6,0-1.2,0.2-1.8,0.2c-0.5,0-0.9,0.4-0.9,1c0,0.9,0.1,1.8,0.2,2.6
				c0.2,2.5,0.4,5,0,7.6c-0.1,0.6-0.3,1.3-0.2,1.9c0.4,2.5,0.2,5,1,7.5c0.4-0.1,0.8,0.5,1,0.4c1.2-0.2,2.4,0.1,3.5,0
				c1-0.2,2.1-0.5,3.1-0.7c1.2-0.2,2.5-0.4,3.6-0.8c0.8-0.3,1.7,0.1,2.4-0.6c0.1-0.1,0.4-0.4,0.7-0.1c0.2,0.2,0.4,0,0.5-0.1
				c1-1.2,2.4-1.6,3.8-2.2c0.2-0.2,0-0.6,0.3-0.9c1-0.8,1.8-1.8,2.2-3.1c0.2-0.7,0.2-1.4,0.3-2.1c0.3-2.3-0.2-4.3-1.6-6.1
				c-0.6-0.7-1.5-1.1-1.7-2c-0.3-0.1-0.5,0.5-0.9,0c-0.4-0.5-1.1-0.8-1.5-1.2C148.9,101.6,148.9,102.1,148.5,102.2z"/>
			<path class="st1" d="M197,163.4c-0.6-0.5-1.2-0.8-1.9-0.4c-0.3,0.2-0.5-0.1-0.7-0.2c-0.5-0.2-0.7-0.1-1.1,0.4
				c-0.5-0.5-1.2-0.6-1.8-0.6c-1.1,0.1-2-0.2-3.1-0.4c-0.8-0.1-1.4-0.8-1.7-1.6c-0.8-1.9-1.1-3.9-1.4-5.9c-0.2-1.4-0.1-2.8-0.1-4.2
				c0-2.3,0.4-4.6,1-6.8c0.2-0.5,0.3-1.1,0.4-1.7c0.1-0.4,0.4-0.7,0.6-0.7c1.6-0.3,3.1-1.2,4.8-0.8c0.2,0.1,0.5,0,0.7-0.1
				c0.6-0.3,1,0,1.1,0.6c0.3-0.1,0.2-0.4,0.3-0.5c1.7-0.1,3.4,0.3,5,0.4c2.4,0.1,4.8,0.3,7,1.3c0.6,0.3,1.3,0.5,1.7,1
				c0.2,0.2,0.5,0.5,0.5,0.8c0.1,1.2,0.5,2.4,0.6,3.6c0,1.2,0.3,2.5,0.1,3.7c-0.1,0.6,0.3,1,0.3,1.5c0.1,1.3,0,2.6-0.3,3.8
				c-0.2,1-0.4,2-0.8,2.9c-0.3,0.6-0.8,1.2-1.4,1.5c-0.6,0.3-1.1,0.7-1.7,1.1c-0.3,0.2-0.6,0.7-1.1,0.2c-0.1-0.1-0.4-0.1-0.5,0.1
				c-0.1,0.3-0.4,0.3-0.6,0.3c-1.1,0-2.2,0.3-3.3,0.2c-0.7,0-1.4-0.2-2.1-0.4C197.2,162.7,197.1,163,197,163.4z"/>
			<path class="st0" d="M148.5,102.2c0.3-0.1,0.3-0.6,0.7-0.2c0.5,0.4,1.1,0.7,1.5,1.2c0.4,0.4,0.5-0.1,0.9,0c0.2,1,1.2,1.3,1.7,2
				c1.5,1.8,2,3.8,1.6,6.1c-0.1,0.7-0.1,1.4-0.3,2.1c-0.4,1.4-1.2,2.3-2.2,3.1c-0.4,0.3-0.1,0.7-0.3,0.9c-1.5,0.6-2.9,1-3.8,2.2
				c-0.1,0.2-0.3,0.3-0.5,0.1c-0.3-0.3-0.6,0-0.7,0.1c-0.7,0.7-1.6,0.4-2.4,0.6c-1.2,0.4-2.4,0.6-3.6,0.8c-1.1,0.2-2.1,0.6-3.1,0.7
				c-1.1,0.2-2.3-0.1-3.5,0c-0.3,0-0.6-0.5-1-0.4c-0.8-2.5-0.6-5.1-1-7.5c-0.1-0.6,0.1-1.2,0.2-1.9c0.4-2.5,0.2-5,0-7.6
				c-0.1-0.9-0.1-1.8-0.2-2.6c0-0.6,0.4-1,0.9-1c0.6,0,1.2-0.1,1.8-0.2c0.6,0,1.3-0.5,1.9-1.1c0.6,0.9,1.3,0.2,2.1,0
				c0.2-0.1-0.3,1.3,0.4,0.4c0.5,0.4,1.2,0.2,1.7,0.4c1.2,0.3,2.5,0.3,3.8,0.5C146.3,101.3,147.6,101.1,148.5,102.2z"/>
			<path class="st0" d="M120.2,82.8c0,0,0.1,0.1,0.1,0.1c0,0-0.1,0-0.1,0C120.1,82.9,120.2,82.9,120.2,82.8L120.2,82.8z"/>
			<path class="st0" d="M109.6,83.6C109.6,83.6,109.6,83.7,109.6,83.6c0.1,0.1,0,0.1,0,0.1C109.5,83.7,109.5,83.7,109.6,83.6
				C109.5,83.7,109.5,83.6,109.6,83.6z"/>
		</g>
	</g>
</g>
</svg>
